<svg xmlns="http://www.w3.org/2000/svg" xmlns:xlink="http://www.w3.org/1999/xlink" width="816" height="300"><rect width="1200" height="347.36" rx="0" ry="0" class="a"/><svg height="347.36" viewBox="0 4 120 34.736" width="1200" xmlns="http://www.w3.org/2000/svg" xmlns:xlink="http://www.w3.org/1999/xlink"><style>@keyframes j{0%{transform:translateX(0)}2.8%{transform:translateX(-120px)}3%{transform:translateX(-240px)}11.2%{transform:translateX(-360px)}12.1%{transform:translateX(-480px)}13%{transform:translateX(-600px)}13.5%{transform:translateX(-720px)}14.1%{transform:translateX(-840px)}15.1%{transform:translateX(-960px)}16.1%{transform:translateX(-1080px)}17%{transform:translateX(-1200px)}18.8%{transform:translateX(-1320px)}20%{transform:translateX(-1440px)}21.1%{transform:translateX(-1560px)}21.9%{transform:translateX(-1680px)}23.9%{transform:translateX(-1800px)}24.9%{transform:translateX(-1920px)}27.7%{transform:translateX(-2040px)}30.9%{transform:translateX(-2160px)}31.1%{transform:translateX(-2280px)}50%{transform:translateX(-2640px)}
to{transform:translateX(-2640px)}}.a{fill:#33262a}.d,.e,.f{fill:#99f4e5;white-space:pre}.e,.f{fill:#fff0e1}.f{fill:#fff0e1}.z{fill:#e4a663}
.q {
  fill: #e4a663;
}
</style><g font-family="Monaco,Consolas,Menlo,'Bitstream Vera Sans Mono','Powerline Symbols',monospace" font-size="1.67"><defs><symbol id="2"><text y="1.67" class="d">$</text></symbol><symbol id="3"><text y="1.67" class="d">$</text><text x="2.004" y="1.67" class="e z">ganache</text></symbol><symbol id="4"><text y="1.67" class="d">$</text><text x="2.004" y="1.67" class="e z">ganache</text><text x="10.02" y="1.67" class="e z">--fork</text></symbol><symbol id="5"><text y="1.67" class="e">ganache</text><text x="8.016" y="1.67" class="e">v7.0.0-beta.0</text><text x="23.046" y="1.67" class="e">(@ganache/cli:</text><text x="38.076" y="1.67" class="e">0.1.1-beta.0,</text><text x="53.106" y="1.67" class="e">@ganache/core:</text><text x="68.136" y="1.67" class="e">0.1.1-beta.0)</text></symbol><symbol id="6"><text y="1.67" class="e">==================</text></symbol><symbol id="7"><text y="1.67" class="f">9007199254740991</text></symbol><symbol id="8"><text y="1.67" class="e">Forked</text><text x="7.014" y="1.67" class="e">Chain</text></symbol><symbol id="9"><text y="1.67" class="e">Location:</text><text x="17.034" y="1.67" class="f q">Ethereum</text><text x="26.052" y="1.67" class="f q">Mainnet,</text><text x="35.07" y="1.67" class="f q">via</text><text x="39.078" y="1.67" style="white-space:pre" fill="#ff6b4a">丕Infura</text></symbol><symbol id="10"><text y="1.67" class="e">Block:</text><text x="17.034" y="1.67" class="f">13646479</text></symbol><symbol id="11"><text y="1.67" class="e">Network</text><text x="8.016" y="1.67" class="e">ID:</text><text x="17.034" y="1.67" class="f">1</text></symbol><symbol id="12"><text y="1.67" class="e">Time:</text><text x="17.034" y="1.67" class="f">Fri</text><text x="21.042" y="1.67" class="f">Nov</text><text x="25.05" y="1.67" class="f">19</text><text x="28.056" y="1.67" class="f">2021</text><text x="33.066" y="1.67" class="f">11:03:12</text><text x="42.084" y="1.67" class="f">GMT-0500</text><text x="51.102" y="1.67" class="f">(Eastern</text><text x="60.12" y="1.67" class="f">Standard</text><text x="69.138" y="1.67" class="f">Time)</text></symbol><symbol id="13"><text y="1.67" class="e">Chain</text><text x="6.012" y="1.67" class="e">Id</text></symbol><symbol id="14"><text y="1.67" class="f">1337</text></symbol><symbol id="15"><text y="1.67" class="e">RPC</text><text x="4.008" y="1.67" class="e">Listening</text><text x="14.028" y="1.67" class="e">on</text><text x="17.034" y="1.67" class="e">127.0.0.1:8545</text></symbol><symbol id="a"><path fill="transparent" d="M0 0h120v16H0z"/></symbol><symbol id="b"><path fill="#6f7683" d="M0 0h1.102v2.171H0z"/></symbol></defs><path class="a" d="M0 0h120v34.736H0z"/>
<g style="animation-duration:7s;animation-iteration-count:infinite;animation-name:j;animation-timing-function:steps(1,end)"><svg width="3000"><svg><use xlink:href="#a"/><use xlink:href="#b" x="-.004"/></svg><svg x="120"><use xlink:href="#a"/><use xlink:href="#b" x="-.004"/></svg><svg x="240"><use xlink:href="#a"/><use xlink:href="#b" x="1.996" y="4.317"/><use xlink:href="#1" y="2.171"/><use xlink:href="#2" y="4.342"/></svg><svg x="360"><use xlink:href="#a"/><use xlink:href="#b" x="2.996" y="4.317"/><use xlink:href="#1" y="2.171"/><text y="6.012" class="d">$</text><text x="2.004" y="6.012" class="e z">g</text></svg><svg x="480"><use xlink:href="#a"/><use xlink:href="#b" x="3.996" y="4.317"/><use xlink:href="#1" y="2.171"/><text y="6.012" class="d">$</text><text x="2.004" y="6.012" class="e z">ga</text></svg><svg x="600"><use xlink:href="#a"/><use xlink:href="#b" x="4.996" y="4.317"/><use xlink:href="#1" y="2.171"/><text y="6.012" class="d">$</text><text x="2.004" y="6.012" class="e z">gan</text></svg><svg x="720"><use xlink:href="#a"/><use xlink:href="#b" x="5.996" y="4.317"/><use xlink:href="#1" y="2.171"/><text y="6.012" class="d">$</text><text x="2.004" y="6.012" class="e z">gana</text></svg><svg x="840"><use xlink:href="#a"/><use xlink:href="#b" x="6.996" y="4.317"/><use xlink:href="#1" y="2.171"/><text y="6.012" class="d">$</text><text x="2.004" y="6.012" class="e z">ganac</text></svg><svg x="960"><use xlink:href="#a"/><use xlink:href="#b" x="7.996" y="4.317"/><use xlink:href="#1" y="2.171"/><text y="6.012" class="d">$</text><text x="2.004" y="6.012" class="e z">ganach</text></svg><svg x="1080"><use xlink:href="#a"/><use xlink:href="#b" x="8.996" y="4.317"/><use xlink:href="#1" y="2.171"/><use xlink:href="#3" y="4.342"/></svg><svg x="1200"><use xlink:href="#a"/><use xlink:href="#b" x="9.996" y="4.317"/><use xlink:href="#1" y="2.171"/><use xlink:href="#3" y="4.342"/></svg><svg x="1320"><use xlink:href="#a"/><use xlink:href="#b" x="10.996" y="4.317"/><use xlink:href="#1" y="2.171"/><text y="6.012" class="d">$</text><text x="2.004" y="6.012" class="e z">ganache</text><text x="10.02" y="6.012" class="e z">-</text></svg><svg x="1440"><use xlink:href="#a"/><use xlink:href="#b" x="11.996" y="4.317"/><use xlink:href="#1" y="2.171"/><text y="6.012" class="d">$</text><text x="2.004" y="6.012" class="e z">ganache</text><text x="10.02" y="6.012" class="e z">--</text></svg><svg x="1560"><use xlink:href="#a"/><use xlink:href="#b" x="12.996" y="4.317"/><use xlink:href="#1" y="2.171"/><text y="6.012" class="d">$</text><text x="2.004" y="6.012" class="e z">ganache</text><text x="10.02" y="6.012" class="e z">--f</text></svg><svg x="1680"><use xlink:href="#a"/><use xlink:href="#b" x="13.996" y="4.317"/><use xlink:href="#1" y="2.171"/><text y="6.012" class="d">$</text><text x="2.004" y="6.012" class="e z">ganache</text><text x="10.02" y="6.012" class="e z">--fo</text></svg><svg x="1800"><use xlink:href="#a"/><use xlink:href="#b" x="14.996" y="4.317"/><use xlink:href="#1" y="2.171"/><text y="6.012" class="d">$</text><text x="2.004" y="6.012" class="e z">ganache</text><text x="10.02" y="6.012" class="e z">--for</text></svg><svg x="1920"><use xlink:href="#a"/><use xlink:href="#b" x="15.996" y="4.317"/><use xlink:href="#1" y="2.171"/><use xlink:href="#4" y="4.342"/></svg><svg x="2040"><use xlink:href="#a"/><use xlink:href="#b" x="-.004" y="6.488"/><use xlink:href="#1" y="2.171"/><use xlink:href="#4" y="4.342"/></svg><svg x="2160"><use xlink:href="#a"/><use xlink:href="#b" x="-.004" y="8.659"/><use xlink:href="#1" y="2.171"/><use xlink:href="#4" y="4.342"/><use xlink:href="#5" y="6.513"/></svg><svg x="2280"><use xlink:href="#a"/><use xlink:href="#b" x="-.004" y="10.83"/><use xlink:href="#1" y="2.171"/><use xlink:href="#4" y="4.342"/><use xlink:href="#5" y="6.513"/><text y="10.354" class="e">Starting</text><text x="9.018" y="10.354" class="e">RPC</text><text x="13.026" y="10.354" class="e">server</text></svg><svg x="2400"><use xlink:href="#a"/><use xlink:href="#b" x="67.996" y="32.54"/><text y="1.67" class="e">(2)</text><text x="4.008" y="1.67" class="e">0x87Fb802445db243FD723154F1664A2AC89d4122d</text><text x="47.094" y="1.67" class="e">(1000</text><text x="53.106" y="1.67" class="e">ETH)</text><text y="3.841" class="e">(3)</text><text x="4.008" y="3.841" class="e">0xf33d2c9695058EA45a5Af01E0F7DcC072C694FCB</text><text x="47.094" y="3.841" class="e">(1000</text><text x="53.106" y="3.841" class="e">ETH)</text><text y="6.012" class="e">(4)</text><text x="4.008" y="6.012" class="e">0x6c65f9b6554E999f0018d2e36147d74d9AEC1bE1</text><text x="47.094" y="6.012" class="e">(1000</text><text x="53.106" y="6.012" class="e">ETH)</text><text y="8.183" class="e">(5)</text><text x="4.008" y="8.183" class="e">0x81f9d9938DF492D61d170B49Ee2CEf77E4F5240C</text><text x="47.094" y="8.183" class="e">(1000</text><text x="53.106" y="8.183" class="e">ETH)</text><text y="10.354" class="e">(6)</text><text x="4.008" y="10.354" class="e">0xDc63bD87c1bc47e645bfb23De0f2Feff4110947D</text><text x="47.094" y="10.354" class="e">(1000</text><text x="53.106" y="10.354" class="e">ETH)</text><text y="12.525" class="e">(7)</text><text x="4.008" y="12.525" class="e">0xaC662BdeBF0c26662ce97bdE2aA54da924Eca145</text><text x="47.094" y="12.525" class="e">(1000</text><text x="53.106" y="12.525" class="e">ETH)</text><text y="14.696" class="e">(8)</text><text x="4.008" y="14.696" class="e">0xad603A6Ee811B756EE3d002774ba8683152108Ee</text><text x="47.094" y="14.696" class="e">(1000</text><text x="53.106" y="14.696" class="e">ETH)</text><text y="16.867" class="e">(9)</text><text x="4.008" y="16.867" class="e">0x410241ECA45cb204Ec1477699B7cCafA62E27b26</text><text x="47.094" y="16.867" class="e">(1000</text><text x="53.106" y="16.867" class="e">ETH)</text><text y="21.209" class="e">Private</text><text x="8.016" y="21.209" class="e">Keys</text><use xlink:href="#6" y="21.71"/><text y="25.551" class="e">(0)</text><text x="4.008" y="25.551" class="e">0xc5034fe7a7028e5432455171ec5003a1789e5f06af7b90092a2f026c6ea3a637</text><text y="27.722" class="e">(1)</text><text x="4.008" y="27.722" class="e">0x251d81f3c1ffac1a5415d00ca4822767ecaf2e64710458fdac4e3d41dcd2fdc3</text><text y="29.893" class="e">(2)</text><text x="4.008" y="29.893" class="e">0x7ddb13dc4182e2aec84c840d741a0d0b04cab2f6f6a240684cbdf8c39362d28d</text><text y="32.064" class="e">(3)</text><text x="4.008" y="32.064" class="e">0x3b2b7e294fd75cddd8b1695749a15f957ef806f12d3bf936727539c8c1a4aaba</text><text y="34.235" class="e">(4)</text><text x="4.008" y="34.235" class="e">0x67fe577bf28a7f259ac367e11b4630a2b5efd7a1d95af1afe9ac350004e8d5</text></svg><svg x="2520"><use xlink:href="#a"/><use xlink:href="#b" x="15.996" y="32.54"/><use xlink:href="#6"/><text y="3.841" class="f">2000000000</text><text y="8.183" class="e">BlockGas</text><text x="9.018" y="8.183" class="e">Limit</text><use xlink:href="#6" y="8.684"/><text y="12.525" class="f">12000000</text><text y="16.867" class="e">Call</text><text x="5.01" y="16.867" class="e">Gas</text><text x="9.018" y="16.867" class="e">Limit</text><use xlink:href="#6" y="17.368"/><use xlink:href="#7" y="19.539"/><use xlink:href="#8" y="23.881"/><use xlink:href="#6" y="26.052"/><use xlink:href="#9" y="28.223"/><use xlink:href="#10" y="30.394"/><text y="34.235" class="e">Network</text><text x="8.016" y="34.235" class="e">ID:</text></svg><svg x="2640"><use xlink:href="#a"/><use xlink:href="#b" x="-.004" y="32.54"/><use xlink:href="#6"/><use xlink:href="#7" y="2.171"/><use xlink:href="#8" y="6.513"/><use xlink:href="#6" y="8.684"/><use xlink:href="#9" y="10.855"/><use xlink:href="#10" y="13.026"/><use xlink:href="#11" y="15.197"/><use xlink:href="#12" y="17.368"/><use xlink:href="#13" y="21.71"/><use xlink:href="#6" y="23.881"/><use xlink:href="#14" y="26.052"/><use xlink:href="#15" y="30.394"/></svg><svg x="2760"><use xlink:href="#a"/><use xlink:href="#b" x="1.996" y="32.54"/><use xlink:href="#8" y="2.171"/><use xlink:href="#6" y="4.342"/><use xlink:href="#9" y="6.513"/><use xlink:href="#10" y="8.684"/><use xlink:href="#11" y="10.855"/><use xlink:href="#12" y="13.026"/><use xlink:href="#13" y="17.368"/><use xlink:href="#6" y="19.539"/><use xlink:href="#14" y="21.71"/><use xlink:href="#15" y="26.052"/><use xlink:href="#1" y="30.394"/><use xlink:href="#2" y="32.565"/></svg><svg x="2880"><use xlink:href="#a"/><use xlink:href="#b" x="-.004" y="32.54"/><use xlink:href="#8"/><use xlink:href="#6" y="2.171"/><use xlink:href="#9" y="4.342"/><use xlink:href="#10" y="6.513"/><use xlink:href="#11" y="8.684"/><use xlink:href="#12" y="10.855"/><use xlink:href="#13" y="15.197"/><use xlink:href="#6" y="17.368"/><use xlink:href="#14" y="19.539"/><use xlink:href="#15" y="23.881"/><use xlink:href="#1" y="28.223"/><text y="32.064" class="d">$</text><text x="2.004" y="32.064" class="e">exit</text></svg></svg></g></g></svg></svg>