<svg width="116" height="48" viewBox="0 0 116 48" xmlns="http://www.w3.org/2000/svg">
  <style>
    .text {
      font-family: Helvetica Neue LT,Helvetica Neue,-apple-system,BlinkMacSystemFont,Segoe UI,Helvetica,Arial,sans-serif;
      color:#14171a;
      font-size: 16px;
      font-weight: 700;
      letter-spacing: .12px;
      line-height: 24px;
      margin-left: 8px;
      overflow: hidden;
      text-overflow: ellipsis;
      white-space: nowrap;
    }
  </style>
  <rect x="0" width="116" height="48" rx="16" fill="#f3f7fa"></rect>
  <path style="transform:translate(16px, 16px)" fill-rule="evenodd" clip-rule="evenodd" d="M7.04128 17.7861C4.53883 17.7861 2.21078 17.0602 0.25 15.8165C0.596807 15.857 0.949401 15.8773 1.30683 15.8773C3.38266 15.8773 5.29282 15.1764 6.80944 14.0003C4.87 13.9646 3.23461 12.6968 2.67056 10.9547C2.94041 11.0059 3.21803 11.0338 3.50342 11.0338C3.90767 11.0338 4.2993 10.9798 4.67133 10.8796C2.64431 10.4775 1.11689 8.70468 1.11689 6.5808C1.11689 6.56156 1.11689 6.54327 1.11792 6.52489C1.71505 6.85368 2.39787 7.05133 3.12448 7.07347C1.93514 6.28783 1.15299 4.94488 1.15299 3.42361C1.15299 2.62053 1.37213 1.86754 1.75297 1.21971C3.93781 3.87277 7.20298 5.61776 10.885 5.80097C10.8091 5.47987 10.7701 5.14535 10.7701 4.80118C10.7701 2.38039 12.7543 0.416626 15.2012 0.416626C16.4753 0.416626 17.6267 0.949734 18.4351 1.80197C19.4444 1.60535 20.392 1.23997 21.2484 0.737722C20.9172 1.76154 20.2148 2.62053 19.3002 3.1633C20.1963 3.0572 21.0506 2.82194 21.8444 2.47297C21.2512 3.35223 20.4993 4.12445 19.6342 4.7433C19.643 4.93129 19.6469 5.12031 19.6469 5.31018C19.6469 11.1042 15.1905 17.7861 7.04128 17.7861Z" fill="#1DA1F2"></path> 
  <text class="text" x="48" y="30">Tweet</text>
</svg>