<svg width="305.387451171875px" height="138.830029296875px" xmlns="http://www.w3.org/2000/svg" viewBox="97.3062744140625 5.584985351562494 305.387451171875 138.830029296875" style="background: rgba(0, 0, 0, 0);" preserveAspectRatio="xMidYMid"><defs><filter id="editing-extrusion" x="-100%" y="-100%" width="300%" height="300%"><feFlood result="color1" flood-color="#444"></feFlood><feConvolveMatrix order="8,8" divisor="1" kernelMatrix="1 0 0 0 0 0 0 0 0 1 0 0 0 0 0 0 0 0 1 0 0 0 0 0 0 0 0 1 0 0 0 0 0 0 0 0 1 0 0 0 0 0 0 0 0 1 0 0 0 0 0 0 0 0 1 0 0 0 0 0 0 0 0 1" in="SourceAlpha" result="extrude"></feConvolveMatrix><feComposite in="color1" in2="extrude" result="comp-extrude" operator="in"></feComposite><feOffset dx="4" dy="4" in="comp-extrude" result="offset-extrude"></feOffset><feMerge><feMergeNode in="offset-extrude"></feMergeNode><feMergeNode in="SourceGraphic"></feMergeNode></feMerge></filter></defs><g filter="url(#editing-extrusion)"><g transform="translate(147.68625247478485, 112.18999862670898)"><path d="M24.78-42.13L24.78-19.31L34.75-19.31L34.75-41.16L34.75-41.16Q34.75-44.56 35.73-46.28L35.73-46.28L35.73-46.28Q36.72-48 38.09-48L38.09-48L38.09-48Q38.78-48 39.39-47.59L39.39-47.59L39.39-47.59Q40-47.19 40.47-46.64L40.47-46.64L40.47-46.64Q40.94-46.09 41.20-45.52L41.20-45.52L41.20-45.52Q41.47-44.94 41.47-44.59L41.47-44.59L41.47-44.59Q41.47-44.25 41.20-44.20L41.20-44.20L41.20-44.20Q40.94-44.16 40.61-43.86L40.61-43.86L40.61-43.86Q40.28-43.56 40.02-42.69L40.02-42.69L40.02-42.69Q39.75-41.81 39.75-39.81L39.75-39.81L39.75 0.31L39.75 0.31Q39.75 1.13 39.20 1.45L39.20 1.45L39.20 1.45Q38.66 1.78 37.94 1.78L37.94 1.78L37.94 1.78Q37.38 1.78 36.81 1.63L36.81 1.63L36.81 1.63Q36.25 1.47 35.80 1.22L35.80 1.22L35.80 1.22Q35.34 0.97 35.05 0.64L35.05 0.64L35.05 0.64Q34.75 0.31 34.75-0.06L34.75-0.06L34.75-14.84L24.78-14.84L24.78 0.31L24.78 0.31Q24.78 1.13 24.23 1.45L24.23 1.45L24.23 1.45Q23.69 1.78 22.97 1.78L22.97 1.78L22.97 1.78Q22.41 1.78 21.84 1.63L21.84 1.63L21.84 1.63Q21.28 1.47 20.83 1.22L20.83 1.22L20.83 1.22Q20.38 0.97 20.08 0.64L20.08 0.64L20.08 0.64Q19.78 0.31 19.78-0.06L19.78-0.06L19.78-14.84L15.22-14.84L15.22-14.84Q14.72-14.84 14.30-15.16L14.30-15.16L14.30-15.16Q13.88-15.47 13.58-15.95L13.58-15.95L13.58-15.95Q13.28-16.44 13.11-17L13.11-17L13.11-17Q12.94-17.56 12.94-18.06L12.94-18.06L12.94-18.06Q12.94-18.59 13.17-18.95L13.17-18.95L13.17-18.95Q13.41-19.31 13.88-19.31L13.88-19.31L19.78-19.31L19.78-40L19.78-40Q16.81-40 14.33-39.02L14.33-39.02L14.33-39.02Q11.84-38.03 10.05-36.20L10.05-36.20L10.05-36.20Q8.25-34.38 7.23-31.78L7.23-31.78L7.23-31.78Q6.22-29.19 6.22-25.97L6.22-25.97L6.22-25.97Q6.22-23.94 6.63-22.31L6.63-22.31L6.63-22.31Q7.03-20.69 7.59-19.55L7.59-19.55L7.59-19.55Q8.16-18.41 8.72-17.78L8.72-17.78L8.72-17.78Q9.28-17.16 9.59-17.16L9.59-17.16L9.59-17.16Q9.88-17.16 10-17.31L10-17.31L10-17.31Q10.13-17.47 10.38-17.47L10.38-17.47L10.38-17.47Q10.63-17.47 10.69-17.13L10.69-17.13L10.69-17.13Q10.75-16.78 10.75-16.44L10.75-16.44L10.75-16.44Q10.75-15.44 10.34-14.55L10.34-14.55L10.34-14.55Q9.94-13.66 9.33-13.11L9.33-13.11L9.33-13.11Q8.72-12.56 7.97-12.44L7.97-12.44L7.97-12.44Q7.22-12.31 6.53-12.81L6.53-12.81L6.53-12.81Q5.69-13.41 4.73-14.52L4.73-14.52L4.73-14.52Q3.78-15.63 2.98-17.25L2.98-17.25L2.98-17.25Q2.19-18.88 1.67-21.02L1.67-21.02L1.67-21.02Q1.16-23.16 1.16-25.78L1.16-25.78L1.16-25.78Q1.16-29.19 2.05-31.92L2.05-31.92L2.05-31.92Q2.94-34.66 4.45-36.77L4.45-36.77L4.45-36.77Q5.97-38.88 8.03-40.39L8.03-40.39L8.03-40.39Q10.09-41.91 12.42-42.89L12.42-42.89L12.42-42.89Q14.75-43.88 17.27-44.34L17.27-44.34L17.27-44.34Q19.78-44.81 22.22-44.81L22.22-44.81L22.22-44.81Q22.72-44.81 23.19-44.61L23.19-44.61L23.19-44.61Q23.66-44.41 24-44.05L24-44.05L24-44.05Q24.34-43.69 24.56-43.19L24.56-43.19L24.56-43.19Q24.78-42.69 24.78-42.13L24.78-42.13ZM49.03-30.78L49.03-30.78L49.03-30.78Q48.25-30.78 47.55-31.09L47.55-31.09L47.55-31.09Q46.84-31.41 46.33-31.94L46.33-31.94L46.33-31.94Q45.81-32.47 45.50-33.17L45.50-33.17L45.50-33.17Q45.19-33.88 45.19-34.69L45.19-34.69L45.19-34.69Q45.19-35.53 45.50-36.25L45.50-36.25L45.50-36.25Q45.81-36.97 46.33-37.48L46.33-37.48L46.33-37.48Q46.84-38 47.55-38.30L47.55-38.30L47.55-38.30Q48.25-38.59 49.03-38.59L49.03-38.59L49.03-38.59Q49.88-38.59 50.59-38.30L50.59-38.30L50.59-38.30Q51.31-38 51.83-37.48L51.83-37.48L51.83-37.48Q52.34-36.97 52.64-36.25L52.64-36.25L52.64-36.25Q52.94-35.53 52.94-34.69L52.94-34.69L52.94-34.69Q52.94-33.88 52.64-33.17L52.64-33.17L52.64-33.17Q52.34-32.47 51.83-31.94L51.83-31.94L51.83-31.94Q51.31-31.41 50.59-31.09L50.59-31.09L50.59-31.09Q49.88-30.78 49.03-30.78ZM50.50-21.63L50.50-5.38L50.50-5.38Q50.50-5.16 50.53-4.67L50.53-4.67L50.53-4.67Q50.56-4.19 50.72-3.69L50.72-3.69L50.72-3.69Q50.88-3.19 51.22-2.81L51.22-2.81L51.22-2.81Q51.56-2.44 52.19-2.44L52.19-2.44L52.19-2.44Q53.13-2.44 53.83-3.13L53.83-3.13L53.83-3.13Q54.53-3.81 55.05-4.84L55.05-4.84L55.05-4.84Q55.56-5.88 55.91-7.08L55.91-7.08L55.91-7.08Q56.25-8.28 56.47-9.34L56.47-9.34L56.47-9.34Q56.66-10.31 57.05-10.75L57.05-10.75L57.05-10.75Q57.44-11.19 57.89-11.23L57.89-11.23L57.89-11.23Q58.34-11.28 58.80-11L58.80-11L58.80-11Q59.25-10.72 59.61-10.27L59.61-10.27L59.61-10.27Q59.97-9.81 60.14-9.25L60.14-9.25L60.14-9.25Q60.31-8.69 60.19-8.19L60.19-8.19L60.19-8.19Q59.75-6.59 59.05-4.84L59.05-4.84L59.05-4.84Q58.34-3.09 57.25-1.63L57.25-1.63L57.25-1.63Q56.16-0.16 54.63 0.81L54.63 0.81L54.63 0.81Q53.09 1.78 51.03 1.78L51.03 1.78L51.03 1.78Q49.75 1.78 48.75 1.30L48.75 1.30L48.75 1.30Q47.75 0.81 47.06 0L47.06 0L47.06 0Q46.38-0.81 46.02-1.91L46.02-1.91L46.02-1.91Q45.66-3 45.66-4.22L45.66-4.22L45.66-21.31L45.66-21.31Q45.66-22.22 45.52-22.63L45.52-22.63L45.52-22.63Q45.38-23.03 45.38-23.38L45.38-23.38L45.38-23.38Q45.38-23.84 45.88-24.14L45.88-24.14L45.88-24.14Q46.38-24.44 47.06-24.44L47.06-24.44L47.06-24.44Q48.66-24.44 49.58-23.61L49.58-23.61L49.58-23.61Q50.50-22.78 50.50-21.63L50.50-21.63ZM60.56 19L60.56 19L60.56 19Q60.56 16.56 61.20 14.69L61.20 14.69L61.20 14.69Q61.84 12.81 62.94 11.25L62.94 11.25L62.94 11.25Q64.03 9.69 65.47 8.33L65.47 8.33L65.47 8.33Q66.91 6.97 68.50 5.56L68.50 5.56L68.50-1.16L68.50-1.16Q67.53-0.19 66.23 0.48L66.23 0.48L66.23 0.48Q64.94 1.16 63.25 1.16L63.25 1.16L63.25 1.16Q61.38 1.16 59.95 0.41L59.95 0.41L59.95 0.41Q58.53-0.34 57.56-1.64L57.56-1.64L57.56-1.64Q56.59-2.94 56.11-4.70L56.11-4.70L56.11-4.70Q55.63-6.47 55.63-8.50L55.63-8.50L55.63-8.50Q55.63-12.50 56.91-15.69L56.91-15.69L56.91-15.69Q58.19-18.88 60.31-21.11L60.31-21.11L60.31-21.11Q62.44-23.34 65.17-24.53L65.17-24.53L65.17-24.53Q67.91-25.72 70.84-25.72L70.84-25.72L70.84-25.72Q72.16-25.72 72.97-25.02L72.97-25.02L72.97-25.02Q73.78-24.31 73.78-23.03L73.78-23.03L73.78-23.03Q73.78-22.22 73.61-21.89L73.61-21.89L73.61-21.89Q73.44-21.56 72.97-21.56L72.97-21.56L72.97-21.56Q72.53-21.56 72.06-21.63L72.06-21.63L72.06-21.63Q71.59-21.69 71.09-21.69L71.09-21.69L71.09-21.69Q69.28-21.69 67.41-20.89L67.41-20.89L67.41-20.89Q65.53-20.09 64.02-18.45L64.02-18.45L64.02-18.45Q62.50-16.81 61.53-14.30L61.53-14.30L61.53-14.30Q60.56-11.78 60.56-8.31L60.56-8.31L60.56-8.31Q60.56-5.81 61.53-4.44L61.53-4.44L61.53-4.44Q62.50-3.06 64.19-3.06L64.19-3.06L64.19-3.06Q65.16-3.06 65.88-3.64L65.88-3.64L65.88-3.64Q66.59-4.22 67.13-5.09L67.13-5.09L67.13-5.09Q67.66-5.97 67.98-7.02L67.98-7.02L67.98-7.02Q68.31-8.06 68.50-9.03L68.50-9.03L68.50-16.25L68.50-16.25Q68.50-17.16 68.36-17.56L68.36-17.56L68.36-17.56Q68.22-17.97 68.22-18.31L68.22-18.31L68.22-18.31Q68.22-18.78 68.72-19.09L68.72-19.09L68.72-19.09Q69.22-19.41 69.91-19.41L69.91-19.41L69.91-19.41Q71.50-19.41 72.42-18.58L72.42-18.58L72.42-18.58Q73.34-17.75 73.34-16.56L73.34-16.56L73.34 0.84L73.34 0.84Q75.09-1.09 76.55-3.56L76.55-3.56L76.55-3.56Q78-6.03 78.97-9.34L78.97-9.34L78.97-9.34Q79.28-10.34 79.66-10.80L79.66-10.80L79.66-10.80Q80.03-11.25 80.53-11.25L80.53-11.25L80.53-11.25Q80.91-11.25 81.30-11.02L81.30-11.02L81.30-11.02Q81.69-10.78 82.02-10.41L82.02-10.41L82.02-10.41Q82.34-10.03 82.55-9.56L82.55-9.56L82.55-9.56Q82.75-9.09 82.75-8.63L82.75-8.63L82.75-8.63Q82.75-8.56 82.75-8.38L82.75-8.38L82.75-8.38Q82.75-8.19 82.69-8L82.69-8L82.69-8Q81.88-5.22 80.80-3.08L80.80-3.08L80.80-3.08Q79.72-0.94 78.50 0.75L78.50 0.75L78.50 0.75Q77.28 2.44 75.97 3.77L75.97 3.77L75.97 3.77Q74.66 5.09 73.34 6.22L73.34 6.22L73.34 17.28L73.34 17.28Q73.34 19.81 72.77 21.55L72.77 21.55L72.77 21.55Q72.19 23.28 71.25 24.36L71.25 24.36L71.25 24.36Q70.31 25.44 69.11 25.91L69.11 25.91L69.11 25.91Q67.91 26.38 66.69 26.38L66.69 26.38L66.69 26.38Q65.34 26.38 64.22 25.80L64.22 25.80L64.22 25.80Q63.09 25.22 62.28 24.22L62.28 24.22L62.28 24.22Q61.47 23.22 61.02 21.88L61.02 21.88L61.02 21.88Q60.56 20.53 60.56 19ZM66.69 22.34L66.69 22.34L66.69 22.34Q67.47 22.34 67.84 21.72L67.84 21.72L67.84 21.72Q68.22 21.09 68.36 20.27L68.36 20.27L68.36 20.27Q68.50 19.44 68.50 18.59L68.50 18.59L68.50 18.59Q68.50 17.75 68.50 17.28L68.50 17.28L68.50 10.44L68.50 10.44Q66.94 12 65.98 13.97L65.98 13.97L65.98 13.97Q65.03 15.94 65.03 18.81L65.03 18.81L65.03 18.81Q65.03 20.31 65.47 21.33L65.47 21.33L65.47 21.33Q65.91 22.34 66.69 22.34ZM79.25-1.03L79.25-39.44L79.25-39.44Q79.25-40.13 79.14-40.53L79.14-40.53L79.14-40.53Q79.03-40.94 78.92-41.17L78.92-41.17L78.92-41.17Q78.81-41.41 78.70-41.55L78.70-41.55L78.70-41.55Q78.59-41.69 78.59-41.84L78.59-41.84L78.59-41.84Q78.59-42.03 78.78-42.16L78.78-42.16L78.78-42.16Q78.97-42.28 79.28-42.38L79.28-42.38L79.28-42.38Q79.59-42.47 79.95-42.52L79.95-42.52L79.95-42.52Q80.31-42.56 80.66-42.56L80.66-42.56L80.66-42.56Q82.25-42.56 83.17-41.73L83.17-41.73L83.17-41.73Q84.09-40.91 84.09-39.75L84.09-39.75L84.09-18.75L84.09-18.75Q84.75-20.09 85.52-21.25L85.52-21.25L85.52-21.25Q86.28-22.41 87.17-23.27L87.17-23.27L87.17-23.27Q88.06-24.13 89.08-24.61L89.08-24.61L89.08-24.61Q90.09-25.09 91.28-25.09L91.28-25.09L91.28-25.09Q92.88-25.09 93.91-24.50L93.91-24.50L93.91-24.50Q94.94-23.91 95.53-22.97L95.53-22.97L95.53-22.97Q96.13-22.03 96.36-20.88L96.36-20.88L96.36-20.88Q96.59-19.72 96.59-18.63L96.59-18.63L96.59-5.38L96.59-5.38Q96.59-5.16 96.63-4.67L96.63-4.67L96.63-4.67Q96.66-4.19 96.81-3.69L96.81-3.69L96.81-3.69Q96.97-3.19 97.30-2.81L97.30-2.81L97.30-2.81Q97.63-2.44 98.25-2.44L98.25-2.44L98.25-2.44Q99.22-2.44 99.92-3.13L99.92-3.13L99.92-3.13Q100.63-3.81 101.14-4.84L101.14-4.84L101.14-4.84Q101.66-5.88 101.98-7.08L101.98-7.08L101.98-7.08Q102.31-8.28 102.53-9.34L102.53-9.34L102.53-9.34Q102.72-10.31 103.11-10.75L103.11-10.75L103.11-10.75Q103.50-11.19 103.95-11.23L103.95-11.23L103.95-11.23Q104.41-11.28 104.88-11L104.88-11L104.88-11Q105.34-10.72 105.69-10.27L105.69-10.27L105.69-10.27Q106.03-9.81 106.20-9.25L106.20-9.25L106.20-9.25Q106.38-8.69 106.25-8.19L106.25-8.19L106.25-8.19Q105.81-6.59 105.11-4.84L105.11-4.84L105.11-4.84Q104.41-3.09 103.31-1.63L103.31-1.63L103.31-1.63Q102.22-0.16 100.69 0.81L100.69 0.81L100.69 0.81Q99.16 1.78 97.09 1.78L97.09 1.78L97.09 1.78Q95.81 1.78 94.83 1.30L94.83 1.30L94.83 1.30Q93.84 0.81 93.14 0L93.14 0L93.14 0Q92.44-0.81 92.08-1.91L92.08-1.91L92.08-1.91Q91.72-3 91.72-4.22L91.72-4.22L91.72-17.22L91.72-17.22Q91.72-17.97 91.69-18.63L91.69-18.63L91.69-18.63Q91.66-19.28 91.52-19.78L91.52-19.78L91.52-19.78Q91.38-20.28 91.11-20.58L91.11-20.58L91.11-20.58Q90.84-20.88 90.38-20.88L90.38-20.88L90.38-20.88Q89.69-20.88 88.69-19.94L88.69-19.94L88.69-19.94Q87.69-19 86.72-17.50L86.72-17.50L86.72-17.50Q85.75-16 85.02-14.11L85.02-14.11L85.02-14.11Q84.28-12.22 84.09-10.31L84.09-10.31L84.09-0.97L84.09-0.97Q84.09-0.50 84.08-0.02L84.08-0.02L84.08-0.02Q84.06 0.47 83.89 0.86L83.89 0.86L83.89 0.86Q83.72 1.25 83.36 1.52L83.36 1.52L83.36 1.52Q83 1.78 82.31 1.78L82.31 1.78L82.31 1.78Q81.84 1.78 81.30 1.67L81.30 1.67L81.30 1.67Q80.75 1.56 80.30 1.27L80.30 1.27L80.30 1.27Q79.84 0.97 79.55 0.42L79.55 0.42L79.55 0.42Q79.25-0.13 79.25-1.03L79.25-1.03ZM107.66-37.19L107.66-18.94L107.66-18.94Q108-19.59 108.33-20.70L108.33-20.70L108.33-20.70Q108.66-21.81 108.95-23.16L108.95-23.16L108.95-23.16Q109.25-24.50 109.50-25.97L109.50-25.97L109.50-25.97Q109.75-27.44 109.94-28.84L109.94-28.84L109.94-28.84Q110.13-30.25 110.23-31.48L110.23-31.48L110.23-31.48Q110.34-32.72 110.34-33.59L110.34-33.59L110.34-33.59Q110.34-36.78 109.88-38.27L109.88-38.27L109.88-38.27Q109.41-39.75 108.63-39.75L108.63-39.75L108.63-39.75Q108.38-39.75 108.19-39.50L108.19-39.50L108.19-39.50Q108-39.25 107.88-38.86L107.88-38.86L107.88-38.86Q107.75-38.47 107.70-38.02L107.70-38.02L107.70-38.02Q107.66-37.56 107.66-37.19L107.66-37.19ZM116.75-9.28L116.75-9.28L116.75-9.28Q116.94-10.22 117.33-10.64L117.33-10.64L117.33-10.64Q117.72-11.06 118.17-11.11L118.17-11.11L118.17-11.11Q118.63-11.16 119.09-10.89L119.09-10.89L119.09-10.89Q119.56-10.63 119.91-10.19L119.91-10.19L119.91-10.19Q120.25-9.75 120.42-9.20L120.42-9.20L120.42-9.20Q120.59-8.66 120.47-8.13L120.47-8.13L120.47-8.13Q120.03-6.84 119.22-5.13L119.22-5.13L119.22-5.13Q118.41-3.41 117.16-1.88L117.16-1.88L117.16-1.88Q115.91-0.34 114.22 0.72L114.22 0.72L114.22 0.72Q112.53 1.78 110.34 1.78L110.34 1.78L110.34 1.78Q108.50 1.78 107.09 1.17L107.09 1.17L107.09 1.17Q105.69 0.56 104.73-0.55L104.73-0.55L104.73-0.55Q103.78-1.66 103.30-3.20L103.30-3.20L103.30-3.20Q102.81-4.75 102.81-6.66L102.81-6.66L102.81-35.78L102.81-35.78Q102.81-37.56 103.27-39.08L103.27-39.08L103.27-39.08Q103.72-40.59 104.52-41.67L104.52-41.67L104.52-41.67Q105.31-42.75 106.38-43.36L106.38-43.36L106.38-43.36Q107.44-43.97 108.63-43.97L108.63-43.97L108.63-43.97Q110.03-43.97 111-43.45L111-43.45L111-43.45Q111.97-42.94 112.59-42.09L112.59-42.09L112.59-42.09Q113.22-41.25 113.58-40.16L113.58-40.16L113.58-40.16Q113.94-39.06 114.09-37.92L114.09-37.92L114.09-37.92Q114.25-36.78 114.28-35.67L114.28-35.67L114.28-35.67Q114.31-34.56 114.31-33.66L114.31-33.66L114.31-33.66Q114.31-31.31 113.88-28.73L113.88-28.73L113.88-28.73Q113.44-26.16 112.77-23.66L112.77-23.66L112.77-23.66Q112.09-21.16 111.30-18.86L111.30-18.86L111.30-18.86Q110.50-16.56 109.77-14.78L109.77-14.78L109.77-14.78Q109.03-13 108.45-11.88L108.45-11.88L108.45-11.88Q107.88-10.75 107.66-10.56L107.66-10.56L107.66-6.84L107.66-6.84Q107.66-4.91 108.47-3.67L108.47-3.67L108.47-3.67Q109.28-2.44 111.06-2.44L111.06-2.44L111.06-2.44Q112.16-2.44 113.11-3.11L113.11-3.11L113.11-3.11Q114.06-3.78 114.80-4.80L114.80-4.80L114.80-4.80Q115.53-5.81 116.03-7.02L116.03-7.02L116.03-7.02Q116.53-8.22 116.75-9.28ZM120.28-30.78L120.28-30.78L120.28-30.78Q119.50-30.78 118.80-31.09L118.80-31.09L118.80-31.09Q118.09-31.41 117.58-31.94L117.58-31.94L117.58-31.94Q117.06-32.47 116.75-33.17L116.75-33.17L116.75-33.17Q116.44-33.88 116.44-34.69L116.44-34.69L116.44-34.69Q116.44-35.53 116.75-36.25L116.75-36.25L116.75-36.25Q117.06-36.97 117.58-37.48L117.58-37.48L117.58-37.48Q118.09-38 118.80-38.30L118.80-38.30L118.80-38.30Q119.50-38.59 120.28-38.59L120.28-38.59L120.28-38.59Q121.13-38.59 121.84-38.30L121.84-38.30L121.84-38.30Q122.56-38 123.08-37.48L123.08-37.48L123.08-37.48Q123.59-36.97 123.89-36.25L123.89-36.25L123.89-36.25Q124.19-35.53 124.19-34.69L124.19-34.69L124.19-34.69Q124.19-33.88 123.89-33.17L123.89-33.17L123.89-33.17Q123.59-32.47 123.08-31.94L123.08-31.94L123.08-31.94Q122.56-31.41 121.84-31.09L121.84-31.09L121.84-31.09Q121.13-30.78 120.28-30.78ZM121.75-21.63L121.75-5.38L121.75-5.38Q121.75-5.16 121.78-4.67L121.78-4.67L121.78-4.67Q121.81-4.19 121.97-3.69L121.97-3.69L121.97-3.69Q122.13-3.19 122.47-2.81L122.47-2.81L122.47-2.81Q122.81-2.44 123.44-2.44L123.44-2.44L123.44-2.44Q124.38-2.44 125.08-3.13L125.08-3.13L125.08-3.13Q125.78-3.81 126.30-4.84L126.30-4.84L126.30-4.84Q126.81-5.88 127.16-7.08L127.16-7.08L127.16-7.08Q127.50-8.28 127.72-9.34L127.72-9.34L127.72-9.34Q127.91-10.31 128.30-10.75L128.30-10.75L128.30-10.75Q128.69-11.19 129.14-11.23L129.14-11.23L129.14-11.23Q129.59-11.28 130.05-11L130.05-11L130.05-11Q130.50-10.72 130.86-10.27L130.86-10.27L130.86-10.27Q131.22-9.81 131.39-9.25L131.39-9.25L131.39-9.25Q131.56-8.69 131.44-8.19L131.44-8.19L131.44-8.19Q131-6.59 130.30-4.84L130.30-4.84L130.30-4.84Q129.59-3.09 128.50-1.63L128.50-1.63L128.50-1.63Q127.41-0.16 125.88 0.81L125.88 0.81L125.88 0.81Q124.34 1.78 122.28 1.78L122.28 1.78L122.28 1.78Q121 1.78 120 1.30L120 1.30L120 1.30Q119 0.81 118.31 0L118.31 0L118.31 0Q117.63-0.81 117.27-1.91L117.27-1.91L117.27-1.91Q116.91-3 116.91-4.22L116.91-4.22L116.91-21.31L116.91-21.31Q116.91-22.22 116.77-22.63L116.77-22.63L116.77-22.63Q116.63-23.03 116.63-23.38L116.63-23.38L116.63-23.38Q116.63-23.84 117.13-24.14L117.13-24.14L117.13-24.14Q117.63-24.44 118.31-24.44L118.31-24.44L118.31-24.44Q119.91-24.44 120.83-23.61L120.83-23.61L120.83-23.61Q121.75-22.78 121.75-21.63L121.75-21.63ZM131.81 19L131.81 19L131.81 19Q131.81 16.56 132.45 14.69L132.45 14.69L132.45 14.69Q133.09 12.81 134.19 11.25L134.19 11.25L134.19 11.25Q135.28 9.69 136.72 8.33L136.72 8.33L136.72 8.33Q138.16 6.97 139.75 5.56L139.75 5.56L139.75-1.16L139.75-1.16Q138.78-0.19 137.48 0.48L137.48 0.48L137.48 0.48Q136.19 1.16 134.50 1.16L134.50 1.16L134.50 1.16Q132.63 1.16 131.20 0.41L131.20 0.41L131.20 0.41Q129.78-0.34 128.81-1.64L128.81-1.64L128.81-1.64Q127.84-2.94 127.36-4.70L127.36-4.70L127.36-4.70Q126.88-6.47 126.88-8.50L126.88-8.50L126.88-8.50Q126.88-12.50 128.16-15.69L128.16-15.69L128.16-15.69Q129.44-18.88 131.56-21.11L131.56-21.11L131.56-21.11Q133.69-23.34 136.42-24.53L136.42-24.53L136.42-24.53Q139.16-25.72 142.09-25.72L142.09-25.72L142.09-25.72Q143.41-25.72 144.22-25.02L144.22-25.02L144.22-25.02Q145.03-24.31 145.03-23.03L145.03-23.03L145.03-23.03Q145.03-22.22 144.86-21.89L144.86-21.89L144.86-21.89Q144.69-21.56 144.22-21.56L144.22-21.56L144.22-21.56Q143.78-21.56 143.31-21.63L143.31-21.63L143.31-21.63Q142.84-21.69 142.34-21.69L142.34-21.69L142.34-21.69Q140.53-21.69 138.66-20.89L138.66-20.89L138.66-20.89Q136.78-20.09 135.27-18.45L135.27-18.45L135.27-18.45Q133.75-16.81 132.78-14.30L132.78-14.30L132.78-14.30Q131.81-11.78 131.81-8.31L131.81-8.31L131.81-8.31Q131.81-5.81 132.78-4.44L132.78-4.44L132.78-4.44Q133.75-3.06 135.44-3.06L135.44-3.06L135.44-3.06Q136.41-3.06 137.13-3.64L137.13-3.64L137.13-3.64Q137.84-4.22 138.38-5.09L138.38-5.09L138.38-5.09Q138.91-5.97 139.23-7.02L139.23-7.02L139.23-7.02Q139.56-8.06 139.75-9.03L139.75-9.03L139.75-16.25L139.75-16.25Q139.75-17.16 139.61-17.56L139.61-17.56L139.61-17.56Q139.47-17.97 139.47-18.31L139.47-18.31L139.47-18.31Q139.47-18.78 139.97-19.09L139.97-19.09L139.97-19.09Q140.47-19.41 141.16-19.41L141.16-19.41L141.16-19.41Q142.75-19.41 143.67-18.58L143.67-18.58L143.67-18.58Q144.59-17.75 144.59-16.56L144.59-16.56L144.59 0.84L144.59 0.84Q146.34-1.09 147.80-3.56L147.80-3.56L147.80-3.56Q149.25-6.03 150.22-9.34L150.22-9.34L150.22-9.34Q150.53-10.34 150.91-10.80L150.91-10.80L150.91-10.80Q151.28-11.25 151.78-11.25L151.78-11.25L151.78-11.25Q152.16-11.25 152.55-11.02L152.55-11.02L152.55-11.02Q152.94-10.78 153.27-10.41L153.27-10.41L153.27-10.41Q153.59-10.03 153.80-9.56L153.80-9.56L153.80-9.56Q154-9.09 154-8.63L154-8.63L154-8.63Q154-8.56 154-8.38L154-8.38L154-8.38Q154-8.19 153.94-8L153.94-8L153.94-8Q153.13-5.22 152.05-3.08L152.05-3.08L152.05-3.08Q150.97-0.94 149.75 0.75L149.75 0.75L149.75 0.75Q148.53 2.44 147.22 3.77L147.22 3.77L147.22 3.77Q145.91 5.09 144.59 6.22L144.59 6.22L144.59 17.28L144.59 17.28Q144.59 19.81 144.02 21.55L144.02 21.55L144.02 21.55Q143.44 23.28 142.50 24.36L142.50 24.36L142.50 24.36Q141.56 25.44 140.36 25.91L140.36 25.91L140.36 25.91Q139.16 26.38 137.94 26.38L137.94 26.38L137.94 26.38Q136.59 26.38 135.47 25.80L135.47 25.80L135.47 25.80Q134.34 25.22 133.53 24.22L133.53 24.22L133.53 24.22Q132.72 23.22 132.27 21.88L132.27 21.88L132.27 21.88Q131.81 20.53 131.81 19ZM137.94 22.34L137.94 22.34L137.94 22.34Q138.72 22.34 139.09 21.72L139.09 21.72L139.09 21.72Q139.47 21.09 139.61 20.27L139.61 20.27L139.61 20.27Q139.75 19.44 139.75 18.59L139.75 18.59L139.75 18.59Q139.75 17.75 139.75 17.28L139.75 17.28L139.75 10.44L139.75 10.44Q138.19 12 137.23 13.97L137.23 13.97L137.23 13.97Q136.28 15.94 136.28 18.81L136.28 18.81L136.28 18.81Q136.28 20.31 136.72 21.33L136.72 21.33L136.72 21.33Q137.16 22.34 137.94 22.34ZM150.50-1.03L150.50-39.44L150.50-39.44Q150.50-40.13 150.39-40.53L150.39-40.53L150.39-40.53Q150.28-40.94 150.17-41.17L150.17-41.17L150.17-41.17Q150.06-41.41 149.95-41.55L149.95-41.55L149.95-41.55Q149.84-41.69 149.84-41.84L149.84-41.84L149.84-41.84Q149.84-42.03 150.03-42.16L150.03-42.16L150.03-42.16Q150.22-42.28 150.53-42.38L150.53-42.38L150.53-42.38Q150.84-42.47 151.20-42.52L151.20-42.52L151.20-42.52Q151.56-42.56 151.91-42.56L151.91-42.56L151.91-42.56Q153.50-42.56 154.42-41.73L154.42-41.73L154.42-41.73Q155.34-40.91 155.34-39.75L155.34-39.75L155.34-18.75L155.34-18.75Q156-20.09 156.77-21.25L156.77-21.25L156.77-21.25Q157.53-22.41 158.42-23.27L158.42-23.27L158.42-23.27Q159.31-24.13 160.33-24.61L160.33-24.61L160.33-24.61Q161.34-25.09 162.53-25.09L162.53-25.09L162.53-25.09Q164.13-25.09 165.16-24.50L165.16-24.50L165.16-24.50Q166.19-23.91 166.78-22.97L166.78-22.97L166.78-22.97Q167.38-22.03 167.61-20.88L167.61-20.88L167.61-20.88Q167.84-19.72 167.84-18.63L167.84-18.63L167.84-5.38L167.84-5.38Q167.84-5.16 167.88-4.67L167.88-4.67L167.88-4.67Q167.91-4.19 168.06-3.69L168.06-3.69L168.06-3.69Q168.22-3.19 168.55-2.81L168.55-2.81L168.55-2.81Q168.88-2.44 169.50-2.44L169.50-2.44L169.50-2.44Q170.47-2.44 171.17-3.13L171.17-3.13L171.17-3.13Q171.88-3.81 172.39-4.84L172.39-4.84L172.39-4.84Q172.91-5.88 173.23-7.08L173.23-7.08L173.23-7.08Q173.56-8.28 173.78-9.34L173.78-9.34L173.78-9.34Q173.97-10.31 174.36-10.75L174.36-10.75L174.36-10.75Q174.75-11.19 175.20-11.23L175.20-11.23L175.20-11.23Q175.66-11.28 176.13-11L176.13-11L176.13-11Q176.59-10.72 176.94-10.27L176.94-10.27L176.94-10.27Q177.28-9.81 177.45-9.25L177.45-9.25L177.45-9.25Q177.63-8.69 177.50-8.19L177.50-8.19L177.50-8.19Q177.06-6.59 176.36-4.84L176.36-4.84L176.36-4.84Q175.66-3.09 174.56-1.63L174.56-1.63L174.56-1.63Q173.47-0.16 171.94 0.81L171.94 0.81L171.94 0.81Q170.41 1.78 168.34 1.78L168.34 1.78L168.34 1.78Q167.06 1.78 166.08 1.30L166.08 1.30L166.08 1.30Q165.09 0.81 164.39 0L164.39 0L164.39 0Q163.69-0.81 163.33-1.91L163.33-1.91L163.33-1.91Q162.97-3 162.97-4.22L162.97-4.22L162.97-17.22L162.97-17.22Q162.97-17.97 162.94-18.63L162.94-18.63L162.94-18.63Q162.91-19.28 162.77-19.78L162.77-19.78L162.77-19.78Q162.63-20.28 162.36-20.58L162.36-20.58L162.36-20.58Q162.09-20.88 161.63-20.88L161.63-20.88L161.63-20.88Q160.94-20.88 159.94-19.94L159.94-19.94L159.94-19.94Q158.94-19 157.97-17.50L157.97-17.50L157.97-17.50Q157-16 156.27-14.11L156.27-14.11L156.27-14.11Q155.53-12.22 155.34-10.31L155.34-10.31L155.34-0.97L155.34-0.97Q155.34-0.50 155.33-0.02L155.33-0.02L155.33-0.02Q155.31 0.47 155.14 0.86L155.14 0.86L155.14 0.86Q154.97 1.25 154.61 1.52L154.61 1.52L154.61 1.52Q154.25 1.78 153.56 1.78L153.56 1.78L153.56 1.78Q153.09 1.78 152.55 1.67L152.55 1.67L152.55 1.67Q152 1.56 151.55 1.27L151.55 1.27L151.55 1.27Q151.09 0.97 150.80 0.42L150.80 0.42L150.80 0.42Q150.50-0.13 150.50-1.03L150.50-1.03ZM168.28-30.09L168.28-30.09L168.28-30.09Q169-30.03 169.88-30L169.88-30L169.88-30Q170.63-29.94 171.69-29.92L171.69-29.92L171.69-29.92Q172.75-29.91 174.06-29.88L174.06-29.88L174.06-40.72L174.06-40.72Q174.06-41.41 173.95-41.81L173.95-41.81L173.95-41.81Q173.84-42.22 173.73-42.45L173.73-42.45L173.73-42.45Q173.63-42.69 173.52-42.83L173.52-42.83L173.52-42.83Q173.41-42.97 173.41-43.13L173.41-43.13L173.41-43.13Q173.41-43.31 173.59-43.44L173.59-43.44L173.59-43.44Q173.78-43.56 174.09-43.66L174.09-43.66L174.09-43.66Q174.41-43.75 174.77-43.80L174.77-43.80L174.77-43.80Q175.13-43.84 175.47-43.84L175.47-43.84L175.47-43.84Q177.06-43.84 177.98-43.02L177.98-43.02L177.98-43.02Q178.91-42.19 178.91-41.03L178.91-41.03L178.91-29.81L178.91-29.81Q181.84-29.81 185.11-29.88L185.11-29.88L185.11-29.88Q188.38-29.94 191.66-30.09L191.66-30.09L191.66-30.09Q192.09-30.56 192.36-30.44L192.36-30.44L192.36-30.44Q192.63-30.31 192.70-29.84L192.70-29.84L192.70-29.84Q192.78-29.38 192.72-28.69L192.72-28.69L192.72-28.69Q192.66-28 192.47-27.36L192.47-27.36L192.47-27.36Q192.28-26.72 191.95-26.25L191.95-26.25L191.95-26.25Q191.63-25.78 191.22-25.78L191.22-25.78L191.22-25.78Q187.38-25.69 184.42-25.67L184.42-25.67L184.42-25.67Q181.47-25.66 178.91-25.66L178.91-25.66L178.91-5.38L178.91-5.38Q178.91-3.81 179.50-3.13L179.50-3.13L179.50-3.13Q180.09-2.44 181.09-2.44L181.09-2.44L181.09-2.44Q182.06-2.44 182.77-3.13L182.77-3.13L182.77-3.13Q183.47-3.81 183.98-4.84L183.98-4.84L183.98-4.84Q184.50-5.88 184.83-7.08L184.83-7.08L184.83-7.08Q185.16-8.28 185.38-9.34L185.38-9.34L185.38-9.34Q185.56-10.34 186-10.80L186-10.80L186-10.80Q186.44-11.25 186.91-11.25L186.91-11.25L186.91-11.25Q187.28-11.25 187.69-11.02L187.69-11.02L187.69-11.02Q188.09-10.78 188.42-10.41L188.42-10.41L188.42-10.41Q188.75-10.03 188.95-9.56L188.95-9.56L188.95-9.56Q189.16-9.09 189.16-8.63L189.16-8.63L189.16-8.63Q189.16-8.56 189.16-8.47L189.16-8.47L189.16-8.47Q189.16-8.38 189.09-8.19L189.09-8.19L189.09-8.19Q188.69-6.59 187.98-4.84L187.98-4.84L187.98-4.84Q187.28-3.09 186.17-1.63L186.17-1.63L186.17-1.63Q185.06-0.16 183.53 0.81L183.53 0.81L183.53 0.81Q182 1.78 179.94 1.78L179.94 1.78L179.94 1.78Q178.66 1.78 177.58 1.39L177.58 1.39L177.58 1.39Q176.50 1 175.72 0.14L175.72 0.14L175.72 0.14Q174.94-0.72 174.50-2.06L174.50-2.06L174.50-2.06Q174.06-3.41 174.06-5.31L174.06-5.31L174.06-25.66L174.06-25.66Q173-25.66 172.17-25.67L172.17-25.67L172.17-25.67Q171.34-25.69 170.78-25.72L170.78-25.72L170.78-25.72Q170.13-25.75 169.63-25.78L169.63-25.78L169.63-25.78Q168.88-25.78 168.30-26.45L168.30-26.45L168.30-26.45Q167.72-27.13 167.48-27.94L167.48-27.94L167.48-27.94Q167.25-28.75 167.42-29.42L167.42-29.42L167.42-29.42Q167.59-30.09 168.28-30.09ZM189.28-8.78L189.28-8.78L189.28-8.78Q189.03-7.78 188.34-7.55L188.34-7.55L188.34-7.55Q187.66-7.31 186.98-7.59L186.98-7.59L186.98-7.59Q186.31-7.88 185.86-8.56L185.86-8.56L185.86-8.56Q185.41-9.25 185.59-10.06L185.59-10.06L185.59-10.06Q186.06-12.19 186.95-14.77L186.95-14.77L186.95-14.77Q187.84-17.34 188.72-19.91L188.72-19.91L188.72-19.91Q188.25-20.63 187.97-21.36L187.97-21.36L187.97-21.36Q187.69-22.09 187.69-22.91L187.69-22.91L187.69-22.91Q187.69-23.72 188.30-24.61L188.30-24.61L188.30-24.61Q188.91-25.50 189.77-26.25L189.77-26.25L189.77-26.25Q190.63-27 191.55-27.48L191.55-27.48L191.55-27.48Q192.47-27.97 193.13-27.97L193.13-27.97L193.13-27.97Q194.28-27.97 194.86-27.19L194.86-27.19L194.86-27.19Q195.44-26.41 195.44-25.09L195.44-25.09L195.44-25.09Q195.44-24.38 195.20-23.67L195.20-23.67L195.20-23.67Q194.97-22.97 194.69-22.36L194.69-22.36L194.69-22.36Q194.41-21.75 194.17-21.31L194.17-21.31L194.17-21.31Q193.94-20.88 193.91-20.75L193.91-20.75L193.91-20.75Q195.03-18.75 196.25-17.22L196.25-17.22L196.25-17.22Q197.47-15.69 198.48-14.19L198.48-14.19L198.48-14.19Q199.50-12.69 200.16-11L200.16-11L200.16-11Q200.81-9.31 200.81-7.03L200.81-7.03L200.81-7.03Q200.81-6.47 200.73-5.88L200.73-5.88L200.73-5.88Q200.66-5.28 200.50-4.75L200.50-4.75L200.50-4.75Q201.63-4.97 202.48-5.44L202.48-5.44L202.48-5.44Q203.34-5.91 203.98-6.52L203.98-6.52L203.98-6.52Q204.63-7.13 205.05-7.84L205.05-7.84L205.05-7.84Q205.47-8.56 205.75-9.34L205.75-9.34L205.75-9.34Q206.09-10.25 206.44-10.66L206.44-10.66L206.44-10.66Q206.78-11.06 207.22-11.06L207.22-11.06L207.22-11.06Q207.63-11.06 208.05-10.80L208.05-10.80L208.05-10.80Q208.47-10.53 208.80-10.13L208.80-10.13L208.80-10.13Q209.13-9.72 209.33-9.28L209.33-9.28L209.33-9.28Q209.53-8.84 209.53-8.50L209.53-8.50L209.53-8.50Q209.53-8.03 209.28-7.38L209.28-7.38L209.28-7.38Q209.03-6.72 208.61-6.03L208.61-6.03L208.61-6.03Q208.19-5.34 207.66-4.70L207.66-4.70L207.66-4.70Q207.13-4.06 206.56-3.59L206.56-3.59L206.56-3.59Q205.06-2.38 203.03-1.55L203.03-1.55L203.03-1.55Q201-0.72 198-0.50L198-0.50L198-0.50Q196.84 0.50 195.27 1.14L195.27 1.14L195.27 1.14Q193.69 1.78 191.72 1.78L191.72 1.78L191.72 1.78Q190.72 1.78 189.67 1.53L189.67 1.53L189.67 1.53Q188.63 1.28 187.67 0.89L187.67 0.89L187.67 0.89Q186.72 0.50 185.94 0.03L185.94 0.03L185.94 0.03Q185.16-0.44 184.69-0.91L184.69-0.91L184.69-0.91Q183.50-2.03 183.16-3.17L183.16-3.17L183.16-3.17Q182.81-4.31 182.98-5.22L182.98-5.22L182.98-5.22Q183.16-6.13 183.66-6.70L183.66-6.70L183.66-6.70Q184.16-7.28 184.69-7.28L184.69-7.28L184.69-7.28Q185-7.28 185.67-7.02L185.67-7.02L185.67-7.02Q186.34-6.75 187.22-6.33L187.22-6.33L187.22-6.33Q188.09-5.91 189.13-5.44L189.13-5.44L189.13-5.44Q190.16-4.97 191.19-4.55L191.19-4.55L191.19-4.55Q192.22-4.13 193.20-3.86L193.20-3.86L193.20-3.86Q194.19-3.59 195-3.59L195-3.59L195-3.59Q195.53-4.22 195.97-5.25L195.97-5.25L195.97-5.25Q196.41-6.28 196.41-7.50L196.41-7.50L196.41-7.50Q196.41-9 196-10.28L196-10.28L196-10.28Q195.59-11.56 194.94-12.66L194.94-12.66L194.94-12.66Q194.28-13.75 193.45-14.70L193.45-14.70L193.45-14.70Q192.63-15.66 191.78-16.50L191.78-16.50L191.78-16.50Q191.03-14.66 190.47-12.86L190.47-12.86L190.47-12.86Q189.91-11.06 189.28-8.78Z" fill="#ccc"></path></g></g><style>text {
  font-size: 64px;
  font-family: Arial Black;
  dominant-baseline: central;
  text-anchor: middle;
}</style></svg>