<svg xmlns="http://www.w3.org/2000/svg" viewBox="0 0 190.31 214"><defs><style>.cls-1{fill:#e4a663;}.cls-2{fill:#5e464d;}.cls-3{fill:#fff;}</style></defs><title>ganache-logomark</title><g id="Layer_2" data-name="Layer 2"><g id="Layer_8" data-name="Layer 8"><path class="cls-1" d="M165.38,160.31c2.24,0,3-.52,4.06-2.33s.55-4.75.51-5.55c-.1-1.76-.69-3.72-.76-4.7-.05-.6,0-4.43.09-6,1.34-24.84,12-30.75,15.07-31.42a8.59,8.59,0,0,1,5.94.4l0-38h0l0-.54V62.09c0-5.49-3.91-12.24-8.66-15l-77.87-45C99-.69,91.19-.69,86.43,2.06L8.65,47C3.89,49.71,0,56.46,0,62v9.82s0,.11,0,.17V86.33c.45.25.91.51,1.36.79,1.5,1,3,1.55,4.51,2.6a68.43,68.43,0,0,1,12,9.28c.7.68,3.07,3.66,3.64,4.36a47.22,47.22,0,0,0,5.77,6.6,20.62,20.62,0,0,0,3.87,2.78c2.28,1.19,6.07.92,8,.07,14.82-6.42,24.12-3.2,28.41-.62,10.61,6.37,14.15,15.28,15.28,26.1a29.22,29.22,0,0,1,.14,4.22c0,2.57-.09,6.7,2.62,7.39,3.89,1,4.83-3.16,5.41-5.92,1.32-6.25,9.63-10.35,15.72-7.2,4.2,2.17,5.92,3.4,10.07,1.57,5.2-2.29,7.87-8.12,9.68-11.22A19,19,0,0,1,134,120c8.11-5.05,28.46-3.74,29.21,18.7,0,1.22,0,4.34,0,6.24,0,2.14.07,4.23-.07,6.44-.08,1.47-.35,3-.49,4.51C162.55,155.9,161.79,160.29,165.38,160.31Z"/><path class="cls-2" d="M190.28,110.75c-.56-.17-2.16-1.22-5.93-.4-3.09.67-13.73,6.58-15.07,31.42-.08,1.53-.14,5.36-.09,6,.07,1,.66,2.94.76,4.7,0,.8.62,3.7-.51,5.55s-1.82,2.34-4.06,2.33c-3.59,0-2.83-4.41-2.83-4.41.14-1.49.41-3,.49-4.51.14-2.21.07-4.3.07-6.44,0-1.9,0-5,0-6.24C162.41,116.27,142.06,115,134,120a19,19,0,0,0-7.48,7.12c-1.81,3.1-4.48,8.93-9.68,11.22-4.15,1.83-5.87.6-10.07-1.57-6.09-3.15-14.4.95-15.72,7.2-.58,2.76-1.52,6.91-5.41,5.92-2.71-.69-2.62-4.82-2.62-7.39a29.22,29.22,0,0,0-.14-4.22c-1.13-10.82-4.67-19.73-15.28-26.1-4.29-2.58-13.59-5.8-28.41.62-2,.85-5.74,1.12-8-.07A20.62,20.62,0,0,1,27.25,110a47.22,47.22,0,0,1-5.77-6.6c-.57-.7-2.94-3.68-3.64-4.36a68.43,68.43,0,0,0-12-9.28c-1.52-1-3-1.64-4.51-2.6-.45-.28-.91-.54-1.36-.79l0,65.57c0,5.5,3.9,12.25,8.66,15l77.86,45c4.76,2.76,12.55,2.76,17.31,0L181.66,167c4.76-2.75,8.65-9.5,8.65-15Z"/><path class="cls-3" d="M105,99.73c-5.39,3.11-14.2,3.11-19.58,0l-79.61-42c.9.89,80.73,47.27,80.73,47.27,4.76,2.76,12.55,2.76,17.31,0,0,0,79.74-46.24,80.63-47.13Z"/><path class="cls-3" d="M85.32,8.08C90.71,5,99.52,5,104.9,8.09l9.65,4c-.9-.89-10.78-7.29-10.78-7.29-4.75-2.75-12.54-2.76-17.3,0,0,0-15.77,9.27-16.67,10.15Z"/></g></g></svg>