<svg xmlns="http://www.w3.org/2000/svg" viewBox="0 0 198.41 305.77"><defs><style>.cls-1{fill:#5e464d;}.cls-2{fill:#e4a663;}.cls-3{fill:#fff;}</style></defs><title>ganache-logo-v-dark</title><g id="Layer_2" data-name="Layer 2"><g id="Layer_8" data-name="Layer 8"><path class="cls-1" d="M26.54,277.25a18.81,18.81,0,0,1-5.35,5,12.24,12.24,0,0,1-6.43,1.78,12.68,12.68,0,0,1-6.28-1.54,13.36,13.36,0,0,1-4.63-4.36A21.46,21.46,0,0,1,1,271.36a37.15,37.15,0,0,1-1-8.84,33.4,33.4,0,0,1,.78-7.06,35.78,35.78,0,0,1,2.29-7A36.42,36.42,0,0,1,6.73,242a27.08,27.08,0,0,1,4.9-5.27,23.1,23.1,0,0,1,6.06-3.56,19,19,0,0,1,7.1-1.32,12.2,12.2,0,0,1,3.83.59,8.91,8.91,0,0,1,3.07,1.71,8,8,0,0,1,2,2.7,8.28,8.28,0,0,1,.75,3.58,9.72,9.72,0,0,1-.71,3.65,13.75,13.75,0,0,1-1.91,3.31A16.77,16.77,0,0,1,29,250.25a21.05,21.05,0,0,1-3.34,2.22,18,18,0,0,1-3.57,1.43,13,13,0,0,1-3.5.51,3.66,3.66,0,0,1-2.36-.8,3,3,0,0,1-1-2.51,8,8,0,0,1,.05-.81,5.47,5.47,0,0,1,.17-.81,2.66,2.66,0,0,1,.26-.63.42.42,0,0,1,.37-.25.69.69,0,0,1,.36.11,2.48,2.48,0,0,0,.44.24,5.34,5.34,0,0,0,.76.24,5.89,5.89,0,0,0,1.34.12,8,8,0,0,0,3.11-.71,12.5,12.5,0,0,0,3.06-1.9A10.66,10.66,0,0,0,27.54,244a6.07,6.07,0,0,0,.93-3.19,3.84,3.84,0,0,0-.24-1.28,3.54,3.54,0,0,0-.78-1.25,4.24,4.24,0,0,0-1.43-1,5.47,5.47,0,0,0-2.19-.39,10.67,10.67,0,0,0-4.61,1,15.51,15.51,0,0,0-4.16,2.89,24.69,24.69,0,0,0-3.56,4.31,30.29,30.29,0,0,0-2.76,5.31A33.4,33.4,0,0,0,7,256.37a30.26,30.26,0,0,0-.63,6.08A32,32,0,0,0,7,269.19a18.69,18.69,0,0,0,1.8,5.09,9.6,9.6,0,0,0,2.73,3.23,5.78,5.78,0,0,0,3.41,1.13,8.59,8.59,0,0,0,3.56-.73A10.5,10.5,0,0,0,21.41,276a13.31,13.31,0,0,0,2.27-2.81,21.15,21.15,0,0,0,1.62-3.27,20.68,20.68,0,0,0,1-3.37,16,16,0,0,0,.33-3.09,11.4,11.4,0,0,0-.07-1.23,10.36,10.36,0,0,1-.07-1.07,1.24,1.24,0,0,1,.2-.77,1.3,1.3,0,0,1,.54-.41,2.49,2.49,0,0,1,.78-.17q.45,0,.93,0a4.34,4.34,0,0,1,1.19.2,6.06,6.06,0,0,1,1.28.56,4.13,4.13,0,0,1,1,.83,1.49,1.49,0,0,1,.43,1c-.2,1.87-.32,3.65-.37,5.33s-.08,3.38-.08,5.12,0,3.31,0,5.07,0,3.69,0,5.81c.72-.12,1.42-.19,2.1-.24l1.95-.13c.89,0,1.47.2,1.73.76a2.63,2.63,0,0,1,.11,1.87,4.78,4.78,0,0,1-1.06,1.93,2.45,2.45,0,0,1-1.78.91q-.85,0-1.62,0c-.51,0-1,.06-1.58.11-.07,1.3-.19,2.62-.33,3.95a27,27,0,0,1-.73,3.87,19.25,19.25,0,0,1-1.3,3.51,10.74,10.74,0,0,1-2,2.86,8.67,8.67,0,0,1-2.86,1.92,9.85,9.85,0,0,1-3.91.71,9.45,9.45,0,0,1-3.51-.62A8,8,0,0,1,15,303.43a7.41,7.41,0,0,1-1.71-2.59,8.57,8.57,0,0,1-.6-3.24,9.15,9.15,0,0,1,1.19-4.68,12.63,12.63,0,0,1,3.14-3.6,19.31,19.31,0,0,1,4.48-2.64,41.74,41.74,0,0,1,5.17-1.82v-.68c0-1.49,0-2.8-.08-3.95S26.54,278.09,26.54,277.25Zm-5.17,23.19a3.11,3.11,0,0,0,2.18-.85,6.21,6.21,0,0,0,1.5-2.3A16,16,0,0,0,26,294a36.19,36.19,0,0,0,.49-4,14,14,0,0,0-5.82,3,6,6,0,0,0-2,4.49,2.61,2.61,0,0,0,2.75,3Z"/><path class="cls-1" d="M60.66,278.64a2.9,2.9,0,0,0,2-.74A7,7,0,0,0,64.1,276a12.45,12.45,0,0,0,1-2.42c.26-.87.47-1.68.65-2.45a3.16,3.16,0,0,1,.76-1.57,1.52,1.52,0,0,1,1.1-.49,1.9,1.9,0,0,1,.91.25A3.59,3.59,0,0,1,70,270.93a2.39,2.39,0,0,1,.25,1v.17a1,1,0,0,1-.08.3A26.35,26.35,0,0,1,68.86,276a15.15,15.15,0,0,1-2.14,3.48,11,11,0,0,1-3.14,2.63,8.5,8.5,0,0,1-4.29,1.05,7.46,7.46,0,0,1-3.5-.78,6.18,6.18,0,0,1-2.34-2.06,10.44,10.44,0,0,1-2.77,2,8.15,8.15,0,0,1-3.77.83,9,9,0,0,1-3.92-.81,8.17,8.17,0,0,1-2.84-2.21,9.38,9.38,0,0,1-1.73-3.32,13.92,13.92,0,0,1-.58-4.1A18.9,18.9,0,0,1,39.37,265a18,18,0,0,1,4.05-5.87,17.69,17.69,0,0,1,5.78-3.7,18.3,18.3,0,0,1,6.74-1.28,3.88,3.88,0,0,1,2.53.78,2.54,2.54,0,0,1,1,2.12,2.62,2.62,0,0,1-.21,1.24.79.79,0,0,1-.76.35,10.19,10.19,0,0,1-1.08-.06,8.56,8.56,0,0,0-1.15-.07,12.14,12.14,0,0,0-4.38.86,11.58,11.58,0,0,0-4,2.64,13.59,13.59,0,0,0-3,4.49A16.48,16.48,0,0,0,43.71,273a6.68,6.68,0,0,0,1.16,4.21A3.78,3.78,0,0,0,48,278.64a3.5,3.5,0,0,0,2.6-1.07,8.28,8.28,0,0,0,1.67-2.51V264.38a6.58,6.58,0,0,0,0-.85q-.06-.33-.12-.57c0-.16-.07-.3-.09-.42a2.47,2.47,0,0,1,0-.36,1,1,0,0,1,.58-.86A2.86,2.86,0,0,1,54,261a4.74,4.74,0,0,1,3,.89A2.7,2.7,0,0,1,58.1,264v11.42a4.28,4.28,0,0,0,.15,1.13,3.75,3.75,0,0,0,.44,1,2.3,2.3,0,0,0,2,1Z"/><path class="cls-1" d="M66.09,258.23a4.07,4.07,0,0,0-.17-1.42,2.28,2.28,0,0,1-.16-.81,1,1,0,0,1,.59-.83,3,3,0,0,1,1.41-.32,4.64,4.64,0,0,1,3,.89,2.7,2.7,0,0,1,1.09,2.15V261a24.9,24.9,0,0,1,1.69-2.71,13.81,13.81,0,0,1,2-2.17,8.85,8.85,0,0,1,2.27-1.46,6.52,6.52,0,0,1,2.62-.52,6.63,6.63,0,0,1,3.12.64,5.28,5.28,0,0,1,1.94,1.66,6.2,6.2,0,0,1,1,2.26,10.93,10.93,0,0,1,.28,2.43v14.33c0,.16,0,.41,0,.76a4.16,4.16,0,0,0,.22,1.07,2.61,2.61,0,0,0,.58.94,1.5,1.5,0,0,0,1.13.41,2.92,2.92,0,0,0,2-.74A7,7,0,0,0,92.13,276a13.1,13.1,0,0,0,1-2.42c.25-.87.47-1.68.65-2.45a2.85,2.85,0,0,1,.74-1.57,1.55,1.55,0,0,1,1.08-.49,2,2,0,0,1,.93.25,3.45,3.45,0,0,1,.87.66,3.53,3.53,0,0,1,.63.91,2.38,2.38,0,0,1,.24,1v.17a.94.94,0,0,1-.07.3A26.35,26.35,0,0,1,96.89,276a14.89,14.89,0,0,1-2.16,3.48,11.41,11.41,0,0,1-3.14,2.63,8.4,8.4,0,0,1-4.27,1.05,6.54,6.54,0,0,1-2.7-.52,6.28,6.28,0,0,1-2-1.41,5.78,5.78,0,0,1-1.26-2.06,7.42,7.42,0,0,1-.43-2.5v-14c0-.55,0-1.05,0-1.53a5.52,5.52,0,0,0-.21-1.25,2.1,2.1,0,0,0-.48-.86,1.19,1.19,0,0,0-.88-.32,3.44,3.44,0,0,0-2,1A14.06,14.06,0,0,0,75,262.35,19.16,19.16,0,0,0,73,266a14.45,14.45,0,0,0-1.1,4.1v10.11c0,.33,0,.68,0,1a2.37,2.37,0,0,1-.23.94,1.71,1.71,0,0,1-.63.71,2.26,2.26,0,0,1-1.25.29,6.59,6.59,0,0,1-1.2-.12,3.4,3.4,0,0,1-1.19-.44,2.51,2.51,0,0,1-.89-.91,3,3,0,0,1-.36-1.57Z"/><path class="cls-1" d="M115.08,278.64a2.9,2.9,0,0,0,2-.74,7,7,0,0,0,1.45-1.86,12.45,12.45,0,0,0,1-2.42c.26-.87.47-1.68.65-2.45a3.16,3.16,0,0,1,.76-1.57,1.52,1.52,0,0,1,1.1-.49,1.9,1.9,0,0,1,.91.25,3.59,3.59,0,0,1,1.48,1.57,2.26,2.26,0,0,1,.25,1v.17a1,1,0,0,1-.08.3,26.35,26.35,0,0,1-1.32,3.62,15.15,15.15,0,0,1-2.14,3.48,11,11,0,0,1-3.14,2.63,8.47,8.47,0,0,1-4.29,1.05,7.46,7.46,0,0,1-3.5-.78,6.18,6.18,0,0,1-2.34-2.06,10.44,10.44,0,0,1-2.77,2,8.15,8.15,0,0,1-3.77.83,9,9,0,0,1-3.92-.81,8.17,8.17,0,0,1-2.84-2.21,9.38,9.38,0,0,1-1.73-3.32,13.92,13.92,0,0,1-.58-4.1A18.9,18.9,0,0,1,93.79,265a18,18,0,0,1,4-5.87,17.69,17.69,0,0,1,5.78-3.7,18.3,18.3,0,0,1,6.74-1.28,3.9,3.9,0,0,1,2.53.78,2.54,2.54,0,0,1,1,2.12,2.62,2.62,0,0,1-.21,1.24.79.79,0,0,1-.76.35,10.19,10.19,0,0,1-1.08-.06,8.56,8.56,0,0,0-1.15-.07,12.14,12.14,0,0,0-4.38.86,11.58,11.58,0,0,0-4,2.64,13.59,13.59,0,0,0-2.95,4.49A16.48,16.48,0,0,0,98.13,273a6.68,6.68,0,0,0,1.16,4.21,3.78,3.78,0,0,0,3.16,1.47,3.5,3.5,0,0,0,2.6-1.07,8.28,8.28,0,0,0,1.67-2.51V264.38a6.58,6.58,0,0,0,0-.85q-.06-.33-.12-.57t-.09-.42a2.47,2.47,0,0,1,0-.36,1,1,0,0,1,.58-.86,2.86,2.86,0,0,1,1.39-.32,4.69,4.69,0,0,1,3,.89,2.68,2.68,0,0,1,1.12,2.15v11.42a4.28,4.28,0,0,0,.15,1.13,3.75,3.75,0,0,0,.44,1,2.3,2.3,0,0,0,2,1Z"/><path class="cls-1" d="M132.67,283.2a14.65,14.65,0,0,1-4.91-.84,12.52,12.52,0,0,1-4.22-2.51,12.14,12.14,0,0,1-2.94-4.08,13.69,13.69,0,0,1-1.09-5.65,18.82,18.82,0,0,1,.93-5.84,18.06,18.06,0,0,1,2.56-5.12,13.56,13.56,0,0,1,3.92-3.64,9.51,9.51,0,0,1,5-1.38,7,7,0,0,1,3.35.73,7.35,7.35,0,0,1,2.23,1.75,6.81,6.81,0,0,1,1.24,2.22,6.72,6.72,0,0,1,.39,2.09,2,2,0,0,1-.39,1.22,3.7,3.7,0,0,1-.94.91,4.43,4.43,0,0,1-1.23.56,3.8,3.8,0,0,1-1.19.15,1.29,1.29,0,0,1-.84-.34.93.93,0,0,1-.2-.91,9.19,9.19,0,0,1-.28-1.08,4.74,4.74,0,0,0-.45-1.24,3.1,3.1,0,0,0-.87-1,2.47,2.47,0,0,0-1.52-.42,3,3,0,0,0-2,.89,8.16,8.16,0,0,0-1.75,2.45,17.05,17.05,0,0,0-1.22,3.62,19.9,19.9,0,0,0-.47,4.39,10.51,10.51,0,0,0,.58,3.65,7.3,7.3,0,0,0,1.62,2.67,6.73,6.73,0,0,0,2.47,1.64,8.5,8.5,0,0,0,3.1.56,9.14,9.14,0,0,0,3.88-.76,8.77,8.77,0,0,0,2.81-2,10.57,10.57,0,0,0,1.86-2.81,14.82,14.82,0,0,0,1-3.14,2.11,2.11,0,0,1,1.06-1.54,2.34,2.34,0,0,1,1.64-.18,2.87,2.87,0,0,1,1.45.86,1.87,1.87,0,0,1,.5,1.57,17.91,17.91,0,0,1-.54,2.4,14,14,0,0,1-1.14,2.74,15.74,15.74,0,0,1-1.87,2.72,12.44,12.44,0,0,1-2.77,2.38,14.79,14.79,0,0,1-3.81,1.69A17.45,17.45,0,0,1,132.67,283.2Z"/><path class="cls-1" d="M143.11,238.63a4.13,4.13,0,0,0-.13-1.18,3.36,3.36,0,0,0-.26-.7,2,2,0,0,0-.26-.4.47.47,0,0,1-.13-.32.4.4,0,0,1,.22-.34,2.48,2.48,0,0,1,.6-.24,4.73,4.73,0,0,1,.8-.15,7.89,7.89,0,0,1,.84-.05,4.63,4.63,0,0,1,3,.89,2.7,2.7,0,0,1,1.09,2.15V261a24.9,24.9,0,0,1,1.69-2.71,13.39,13.39,0,0,1,2-2.17,8.64,8.64,0,0,1,2.26-1.46,6.52,6.52,0,0,1,2.62-.52,6.7,6.7,0,0,1,3.13.64,5.33,5.33,0,0,1,1.93,1.66,6.2,6.2,0,0,1,1,2.26,10.93,10.93,0,0,1,.28,2.43v14.33c0,.16,0,.41,0,.76a4.16,4.16,0,0,0,.22,1.07,2.61,2.61,0,0,0,.58.94,1.5,1.5,0,0,0,1.13.41,2.92,2.92,0,0,0,2-.74,7,7,0,0,0,1.45-1.86,13.1,13.1,0,0,0,1-2.42c.25-.87.47-1.68.65-2.45a3,3,0,0,1,.68-1.52,1.58,1.58,0,0,1,1-.52,1.84,1.84,0,0,1,1.09.25,3.24,3.24,0,0,1,1,.79,3.4,3.4,0,0,1,.61,1.1,1.91,1.91,0,0,1,.06,1.15,31.56,31.56,0,0,1-1.36,3.62,14.81,14.81,0,0,1-2.14,3.48,11,11,0,0,1-3.12,2.63,8.4,8.4,0,0,1-4.27,1.05,6.54,6.54,0,0,1-2.7-.52,6.28,6.28,0,0,1-2-1.41,5.93,5.93,0,0,1-1.26-2.06,7.42,7.42,0,0,1-.43-2.5v-14c0-.55,0-1.05,0-1.53a5.52,5.52,0,0,0-.21-1.25,2.1,2.1,0,0,0-.48-.86,1.18,1.18,0,0,0-.87-.32,3.43,3.43,0,0,0-2,1,14.06,14.06,0,0,0-2.34,2.64,19.16,19.16,0,0,0-2,3.67,14.45,14.45,0,0,0-1.1,4.1v10.11c0,.33,0,.68,0,1a2.2,2.2,0,0,1-.22.94,1.71,1.71,0,0,1-.63.71,2.26,2.26,0,0,1-1.25.29,6.59,6.59,0,0,1-1.2-.12,3.4,3.4,0,0,1-1.19-.44,2.51,2.51,0,0,1-.89-.91,3,3,0,0,1-.36-1.57Z"/><path class="cls-1" d="M188.65,261.13a11.55,11.55,0,0,1-.73,4,13.39,13.39,0,0,1-2.15,3.83,16.23,16.23,0,0,1-3.53,3.25,15.92,15.92,0,0,1-4.85,2.18,7.3,7.3,0,0,0,1,1.67,6.19,6.19,0,0,0,1.47,1.37,7.14,7.14,0,0,0,2,.91,9,9,0,0,0,2.62.34,8.84,8.84,0,0,0,3.83-.76,8.36,8.36,0,0,0,2.69-2,10.77,10.77,0,0,0,1.77-2.81,16.59,16.59,0,0,0,1-3.14,2.09,2.09,0,0,1,1.06-1.54,2.34,2.34,0,0,1,1.64-.18,2.87,2.87,0,0,1,1.45.86,1.91,1.91,0,0,1,.5,1.57,23.08,23.08,0,0,1-.5,2.4,14.15,14.15,0,0,1-1.06,2.74,15.3,15.3,0,0,1-1.81,2.72,12,12,0,0,1-2.69,2.38,14.28,14.28,0,0,1-3.76,1.69,17.21,17.21,0,0,1-4.94.64,14.06,14.06,0,0,1-5-.93,13.23,13.23,0,0,1-4.31-2.67,13,13,0,0,1-3-4.29,14.06,14.06,0,0,1-1.13-5.8,18.11,18.11,0,0,1,1-6.1,17,17,0,0,1,2.64-4.88,12.71,12.71,0,0,1,3.72-3.23,8.68,8.68,0,0,1,4.27-1.16,7.7,7.7,0,0,1,2.88.51,6,6,0,0,1,2.18,1.43,6.3,6.3,0,0,1,1.35,2.21A8.33,8.33,0,0,1,188.65,261.13Zm-12.27,8.18a4.17,4.17,0,0,0,0,.61c0,.2,0,.42,0,.64A10.54,10.54,0,0,0,179,269a9.66,9.66,0,0,0,2-2.17,9.95,9.95,0,0,0,1.71-5.64,3.18,3.18,0,0,0-.43-1.79,1.32,1.32,0,0,0-1.17-.64,2.58,2.58,0,0,0-1.65.57,5.28,5.28,0,0,0-1.27,1.51,10,10,0,0,0-.89,2.09,21.72,21.72,0,0,0-.57,2.35,19.39,19.39,0,0,0-.3,2.25A16,16,0,0,0,176.38,269.31Z"/><path class="cls-2" d="M168.24,160.31c2.23,0,3-.52,4.06-2.33s.55-4.75.51-5.55c-.1-1.76-.69-3.72-.77-4.7,0-.6,0-4.43.09-6,1.34-24.84,12-30.75,15.08-31.42a8.59,8.59,0,0,1,5.94.4l0-38h0l0-.54V62.09c0-5.49-3.9-12.24-8.66-15l-77.86-45C101.83-.69,94-.69,89.28,2.06L11.5,47c-4.75,2.75-8.65,9.5-8.64,15v9.82a.91.91,0,0,0,0,.17V86.33c.45.25.9.51,1.35.79,1.51,1,3,1.55,4.52,2.6a68.48,68.48,0,0,1,12,9.28c.71.68,3.08,3.66,3.64,4.36a48,48,0,0,0,5.78,6.6A20.89,20.89,0,0,0,34,112.74c2.29,1.19,6.07.92,8,.07,14.82-6.42,24.12-3.2,28.41-.62,10.61,6.37,14.15,15.28,15.28,26.1a29.22,29.22,0,0,1,.14,4.22c0,2.57-.09,6.7,2.62,7.39,3.89,1,4.83-3.16,5.41-5.92,1.31-6.25,9.63-10.35,15.72-7.2,4.2,2.17,5.92,3.4,10.07,1.57,5.19-2.29,7.87-8.12,9.68-11.22a19,19,0,0,1,7.48-7.12c8.1-5.05,28.46-3.74,29.2,18.7,0,1.22,0,4.34,0,6.24,0,2.14.07,4.23-.07,6.44-.09,1.47-.35,3-.49,4.51C165.41,155.9,164.65,160.29,168.24,160.31Z"/><path class="cls-1" d="M193.13,110.75c-.55-.17-2.15-1.22-5.92-.4-3.09.67-13.74,6.58-15.08,31.42-.08,1.53-.13,5.36-.09,6,.08,1,.67,2.94.77,4.7,0,.8.61,3.7-.51,5.55s-1.83,2.34-4.06,2.33c-3.59,0-2.83-4.41-2.83-4.41.14-1.49.4-3,.49-4.51.14-2.21.07-4.3.07-6.44,0-1.9,0-5,0-6.24-.74-22.44-21.1-23.75-29.2-18.7a19,19,0,0,0-7.48,7.12c-1.81,3.1-4.49,8.93-9.68,11.22-4.15,1.83-5.87.6-10.07-1.57-6.09-3.15-14.41.95-15.72,7.2-.58,2.76-1.52,6.91-5.41,5.92-2.71-.69-2.62-4.82-2.62-7.39a29.22,29.22,0,0,0-.14-4.22c-1.13-10.82-4.67-19.73-15.28-26.1-4.29-2.58-13.59-5.8-28.41.62-2,.85-5.74,1.12-8-.07A20.89,20.89,0,0,1,30.11,110a48,48,0,0,1-5.78-6.6c-.56-.7-2.93-3.68-3.64-4.36a68.48,68.48,0,0,0-12-9.28c-1.52-1-3-1.64-4.52-2.6-.45-.28-.9-.54-1.35-.79l0,65.57c0,5.5,3.9,12.25,8.66,15l77.86,45c4.76,2.76,12.55,2.76,17.31,0L184.52,167c4.76-2.75,8.65-9.5,8.64-15Z"/><path class="cls-3" d="M107.88,99.73c-5.38,3.11-14.19,3.11-19.57,0l-79.62-42c.9.89,80.74,47.27,80.74,47.27,4.76,2.76,12.55,2.76,17.31,0,0,0,79.73-46.24,80.63-47.13Z"/><path class="cls-3" d="M88.18,8.08C93.57,5,102.37,5,107.76,8.09l9.65,4c-.9-.89-10.78-7.29-10.78-7.29-4.76-2.75-12.54-2.76-17.3,0,0,0-15.78,9.27-16.67,10.15Z"/></g></g></svg>