<svg xmlns="http://www.w3.org/2000/svg" xmlns:xlink="http://www.w3.org/1999/xlink" viewBox="0 0 265.39 279.15"><defs><style>.cls-1{fill:#fff;}.cls-2{fill:#5e464d;}.cls-3{mask:url(#mask);}.cls-4{fill:#3fe0c5;}</style><mask id="mask" x="0" y="20.13" width="265.39" height="259.02" maskUnits="userSpaceOnUse"><g id="mask-4"><polygon id="path-3" class="cls-1" points="0 20.13 265.39 20.13 265.39 279.15 0 279.15 0 20.13"/></g></mask></defs><title>truffle-logo-dark</title><g id="Layer_2" data-name="Layer 2"><g id="Layer_8" data-name="Layer 8"><polygon id="Fill-12" class="cls-2" points="0 240.28 20.95 240.28 20.95 247.39 14.05 247.39 14.05 278.19 6.73 278.19 6.73 247.39 0 247.39 0 240.28"/><path id="Fill-14" class="cls-2" d="M46.31,255.1H50.6q3.45,0,4.74-.9a3.41,3.41,0,0,0,1.3-3A3.71,3.71,0,0,0,56,249a3.55,3.55,0,0,0-1.72-1.33,13.33,13.33,0,0,0-4-.4h-4Zm-7.22-14.82h9.68q6.28,0,8.95,1.12A9.18,9.18,0,0,1,62,245.13a11.29,11.29,0,0,1,1.63,6.15,10.43,10.43,0,0,1-1.8,6.25,10.84,10.84,0,0,1-5.39,3.81l9,16.85H57.53L49,262.14H46.31v16.05H39.09Z"/><g class="cls-3"><path id="Fill-16" class="cls-2" d="M83.77,240.28H91V264.8a12.68,12.68,0,0,0,.56,4.48,4.31,4.31,0,0,0,1.83,2.09,5.69,5.69,0,0,0,3.08.79,6,6,0,0,0,3.28-.87,4.64,4.64,0,0,0,1.91-2.23,16.6,16.6,0,0,0,.53-5.17V240.28h7.24v22.6a32.77,32.77,0,0,1-.64,7.94,11.23,11.23,0,0,1-2.46,4.28,11.42,11.42,0,0,1-4.19,3,14.05,14.05,0,0,1-5.52,1,13.38,13.38,0,0,1-7.18-1.9,11.06,11.06,0,0,1-4.37-4.74q-1.31-2.85-1.31-9.63Z"/></g><polygon id="Fill-19" class="cls-2" points="131.28 240.28 150.1 240.28 150.1 247.31 138.45 247.31 138.45 254.2 150.1 254.2 150.1 261.13 138.45 261.13 138.45 278.19 131.28 278.19 131.28 240.28"/><polygon id="Fill-21" class="cls-2" points="170.07 240.28 188.89 240.28 188.89 247.31 177.24 247.31 177.24 254.2 188.89 254.2 188.89 261.13 177.24 261.13 177.24 278.19 170.07 278.19 170.07 240.28"/><polygon id="Fill-23" class="cls-2" points="208.8 240.28 216.02 240.28 216.02 271.31 226.53 271.31 226.53 278.19 208.8 278.19 208.8 240.28"/><polygon id="Fill-25" class="cls-2" points="244.7 240.28 265.39 240.28 265.39 247.34 251.86 247.34 251.86 254.2 265.39 254.2 265.39 261.13 251.86 261.13 251.86 271.11 265.39 271.11 265.39 278.19 244.7 278.19 244.7 240.28"/><ellipse class="cls-2" cx="132.45" cy="102.14" rx="100.96" ry="102.14"/><path id="Fill-6" class="cls-1" d="M100.7,192.71c4.13,1.41,18,5.92,18.59,1.51.32-2.42-7-4.9-16.91-10.15a159,159,0,0,1-38.25-28.26A87.82,87.82,0,0,1,37.81,94.75c-.84-30.9,11.24-55.88,31.11-72a101.88,101.88,0,0,0-39.6,78.15c-.59,22.35,5.66,41.18,17.4,58.32A66.5,66.5,0,0,0,59.39,171.7c11.25,8.51,27.7,16.38,41.31,21"/><path id="Fill-8" class="cls-1" d="M234.8,78.73c-6.26-29.44-25.72-50.05-51.75-64.61C203,28.29,231,58.42,214.45,85c-14,21.29-48,17.12-66.65,7C125.68,80,98,53,125.3,26.61c17.7-17.08,74,2.07,64.09,27.6-5.78,14.85-28.28,11.55-38.4,4.29-7.46-5.36-13.74-14.57-10.41-24.08,1.06-3.05.91-7.78-3.4-4.3C134,32.72,132.35,37,131.79,41c-4.71,33.29,54.6,59.1,72.2,26.89,9.13-16.72-5.67-41-24.3-50.94-14-7.5-28.57-12.77-46.43-11.49-28.56,2-52.52,19.9-55.53,49.08-3,29,16.39,55.1,39.22,70.71,24,16.4,56.26,27.21,85.78,17.43,26.46-8.77,37.39-39.14,32.07-63.93"/><path id="Fill-10" class="cls-4" d="M197.56,56.18C200.4,37.1,183.15,24,167.22,18.05c-18.78-7-43.59-3.94-57.27,11.61-10,11.42-9.35,28-4.19,41.42,7.8,20.27,25.41,34.92,45.91,41.25,14.57,4.5,32.18,6.46,46.94,1.71,21.53-6.93,28.54-29.38,24.09-49.95a59.08,59.08,0,0,0-4.36-12.88c-2.72-5.71-11.05-17.27.43-3.19a49.7,49.7,0,0,1,3.32,4.91,55.2,55.2,0,0,1,5.59,12.41c6.26,19.2,1.35,41.6-16,53.19-13.31,8.87-30.23,9.93-45.67,7.71-20.7-3-40.21-13-53.77-29.09-12.38-14.67-20.83-35.74-15.74-55,3.73-14.09,15.17-24.61,28.87-29,17.33-5.61,36.41-3,52,6.11,7.82,4.55,15,10.85,19,19.11a28.35,28.35,0,0,1,2.85,11.93,24.73,24.73,0,0,1-.39,5c-.11.6-1.38,2.29-1.2.9"/></g></g></svg>